G04 #@! TF.GenerationSoftware,KiCad,Pcbnew,(5.1.9)-1*
G04 #@! TF.CreationDate,2021-05-26T14:26:09+01:00*
G04 #@! TF.ProjectId,YamPlate,59616d50-6c61-4746-952e-6b696361645f,rev?*
G04 #@! TF.SameCoordinates,Original*
G04 #@! TF.FileFunction,Copper,L2,Bot*
G04 #@! TF.FilePolarity,Positive*
%FSLAX46Y46*%
G04 Gerber Fmt 4.6, Leading zero omitted, Abs format (unit mm)*
G04 Created by KiCad (PCBNEW (5.1.9)-1) date 2021-05-26 14:26:09*
%MOMM*%
%LPD*%
G01*
G04 APERTURE LIST*
G04 #@! TA.AperFunction,EtchedComponent*
%ADD10C,0.381000*%
G04 #@! TD*
G04 APERTURE END LIST*
D10*
X111218980Y-97155000D02*
X151218900Y-97155000D01*
X151218900Y-97155000D02*
X151218900Y-95156020D01*
X146220180Y-97155000D02*
X146220180Y-96154240D01*
X141218920Y-97155000D02*
X141218920Y-95156020D01*
X136220200Y-97155000D02*
X136220200Y-96154240D01*
X131218940Y-97155000D02*
X131218940Y-95156020D01*
X126220220Y-97155000D02*
X126220220Y-96154240D01*
X121218960Y-97155000D02*
X121218960Y-95156020D01*
X116220240Y-97155000D02*
X116220240Y-96154240D01*
X110218220Y-97155000D02*
X110218220Y-96154240D01*
X109220000Y-97155000D02*
X109220000Y-96154240D01*
X108219240Y-97155000D02*
X108219240Y-96154240D01*
X107218480Y-97155000D02*
X107218480Y-96154240D01*
X105219500Y-97155000D02*
X105219500Y-96154240D01*
X104218740Y-97155000D02*
X104218740Y-96154240D01*
X103217980Y-97155000D02*
X103217980Y-96154240D01*
X102219760Y-97155000D02*
X102219760Y-96154240D01*
X106220260Y-97155000D02*
X106220260Y-95156020D01*
X101219000Y-97155000D02*
X101219000Y-95156020D01*
X101219000Y-97155000D02*
X111218980Y-97155000D01*
X111218980Y-97155000D02*
X111218980Y-95156020D01*
M02*
