G04 #@! TF.GenerationSoftware,KiCad,Pcbnew,(5.1.9)-1*
G04 #@! TF.CreationDate,2021-05-26T14:26:09+01:00*
G04 #@! TF.ProjectId,YamPlate,59616d50-6c61-4746-952e-6b696361645f,rev?*
G04 #@! TF.SameCoordinates,Original*
G04 #@! TF.FileFunction,Legend,Bot*
G04 #@! TF.FilePolarity,Positive*
%FSLAX46Y46*%
G04 Gerber Fmt 4.6, Leading zero omitted, Abs format (unit mm)*
G04 Created by KiCad (PCBNEW (5.1.9)-1) date 2021-05-26 14:26:09*
%MOMM*%
%LPD*%
G01*
G04 APERTURE LIST*
%ADD10C,0.154940*%
%ADD11C,0.300000*%
%ADD12C,0.150000*%
%ADD13C,0.152400*%
G04 APERTURE END LIST*
D10*
X155908952Y-150836380D02*
X155908952Y-151550666D01*
X155861333Y-151693523D01*
X155766095Y-151788761D01*
X155623238Y-151836380D01*
X155528000Y-151836380D01*
X156861333Y-151836380D02*
X156385142Y-151836380D01*
X156385142Y-150836380D01*
X157766095Y-151741142D02*
X157718476Y-151788761D01*
X157575619Y-151836380D01*
X157480380Y-151836380D01*
X157337523Y-151788761D01*
X157242285Y-151693523D01*
X157194666Y-151598285D01*
X157147047Y-151407809D01*
X157147047Y-151264952D01*
X157194666Y-151074476D01*
X157242285Y-150979238D01*
X157337523Y-150884000D01*
X157480380Y-150836380D01*
X157575619Y-150836380D01*
X157718476Y-150884000D01*
X157766095Y-150931619D01*
X158480380Y-150836380D02*
X158480380Y-151550666D01*
X158432761Y-151693523D01*
X158337523Y-151788761D01*
X158194666Y-151836380D01*
X158099428Y-151836380D01*
X159432761Y-151836380D02*
X158956571Y-151836380D01*
X158956571Y-150836380D01*
X160337523Y-151741142D02*
X160289904Y-151788761D01*
X160147047Y-151836380D01*
X160051809Y-151836380D01*
X159908952Y-151788761D01*
X159813714Y-151693523D01*
X159766095Y-151598285D01*
X159718476Y-151407809D01*
X159718476Y-151264952D01*
X159766095Y-151074476D01*
X159813714Y-150979238D01*
X159908952Y-150884000D01*
X160051809Y-150836380D01*
X160147047Y-150836380D01*
X160289904Y-150884000D01*
X160337523Y-150931619D01*
X161051809Y-150836380D02*
X161051809Y-151550666D01*
X161004190Y-151693523D01*
X160908952Y-151788761D01*
X160766095Y-151836380D01*
X160670857Y-151836380D01*
X162004190Y-151836380D02*
X161528000Y-151836380D01*
X161528000Y-150836380D01*
X162908952Y-151741142D02*
X162861333Y-151788761D01*
X162718476Y-151836380D01*
X162623238Y-151836380D01*
X162480380Y-151788761D01*
X162385142Y-151693523D01*
X162337523Y-151598285D01*
X162289904Y-151407809D01*
X162289904Y-151264952D01*
X162337523Y-151074476D01*
X162385142Y-150979238D01*
X162480380Y-150884000D01*
X162623238Y-150836380D01*
X162718476Y-150836380D01*
X162861333Y-150884000D01*
X162908952Y-150931619D01*
X163623238Y-150836380D02*
X163623238Y-151550666D01*
X163575619Y-151693523D01*
X163480380Y-151788761D01*
X163337523Y-151836380D01*
X163242285Y-151836380D01*
X164575619Y-151836380D02*
X164099428Y-151836380D01*
X164099428Y-150836380D01*
X165480380Y-151741142D02*
X165432761Y-151788761D01*
X165289904Y-151836380D01*
X165194666Y-151836380D01*
X165051809Y-151788761D01*
X164956571Y-151693523D01*
X164908952Y-151598285D01*
X164861333Y-151407809D01*
X164861333Y-151264952D01*
X164908952Y-151074476D01*
X164956571Y-150979238D01*
X165051809Y-150884000D01*
X165194666Y-150836380D01*
X165289904Y-150836380D01*
X165432761Y-150884000D01*
X165480380Y-150931619D01*
D11*
X124808571Y-132925428D02*
X124737142Y-132854000D01*
X124594285Y-132782571D01*
X124237142Y-132782571D01*
X124094285Y-132854000D01*
X124022857Y-132925428D01*
X123951428Y-133068285D01*
X123951428Y-133211142D01*
X124022857Y-133425428D01*
X124880000Y-134282571D01*
X123951428Y-134282571D01*
X122665714Y-132782571D02*
X122951428Y-132782571D01*
X123094285Y-132854000D01*
X123165714Y-132925428D01*
X123308571Y-133139714D01*
X123380000Y-133425428D01*
X123380000Y-133996857D01*
X123308571Y-134139714D01*
X123237142Y-134211142D01*
X123094285Y-134282571D01*
X122808571Y-134282571D01*
X122665714Y-134211142D01*
X122594285Y-134139714D01*
X122522857Y-133996857D01*
X122522857Y-133639714D01*
X122594285Y-133496857D01*
X122665714Y-133425428D01*
X122808571Y-133354000D01*
X123094285Y-133354000D01*
X123237142Y-133425428D01*
X123308571Y-133496857D01*
X123380000Y-133639714D01*
X121594285Y-132782571D02*
X121451428Y-132782571D01*
X121308571Y-132854000D01*
X121237142Y-132925428D01*
X121165714Y-133068285D01*
X121094285Y-133354000D01*
X121094285Y-133711142D01*
X121165714Y-133996857D01*
X121237142Y-134139714D01*
X121308571Y-134211142D01*
X121451428Y-134282571D01*
X121594285Y-134282571D01*
X121737142Y-134211142D01*
X121808571Y-134139714D01*
X121880000Y-133996857D01*
X121951428Y-133711142D01*
X121951428Y-133354000D01*
X121880000Y-133068285D01*
X121808571Y-132925428D01*
X121737142Y-132854000D01*
X121594285Y-132782571D01*
X119737142Y-132782571D02*
X120451428Y-132782571D01*
X120522857Y-133496857D01*
X120451428Y-133425428D01*
X120308571Y-133354000D01*
X119951428Y-133354000D01*
X119808571Y-133425428D01*
X119737142Y-133496857D01*
X119665714Y-133639714D01*
X119665714Y-133996857D01*
X119737142Y-134139714D01*
X119808571Y-134211142D01*
X119951428Y-134282571D01*
X120308571Y-134282571D01*
X120451428Y-134211142D01*
X120522857Y-134139714D01*
X119094285Y-132925428D02*
X119022857Y-132854000D01*
X118880000Y-132782571D01*
X118522857Y-132782571D01*
X118380000Y-132854000D01*
X118308571Y-132925428D01*
X118237142Y-133068285D01*
X118237142Y-133211142D01*
X118308571Y-133425428D01*
X119165714Y-134282571D01*
X118237142Y-134282571D01*
X117308571Y-132782571D02*
X117165714Y-132782571D01*
X117022857Y-132854000D01*
X116951428Y-132925428D01*
X116880000Y-133068285D01*
X116808571Y-133354000D01*
X116808571Y-133711142D01*
X116880000Y-133996857D01*
X116951428Y-134139714D01*
X117022857Y-134211142D01*
X117165714Y-134282571D01*
X117308571Y-134282571D01*
X117451428Y-134211142D01*
X117522857Y-134139714D01*
X117594285Y-133996857D01*
X117665714Y-133711142D01*
X117665714Y-133354000D01*
X117594285Y-133068285D01*
X117522857Y-132925428D01*
X117451428Y-132854000D01*
X117308571Y-132782571D01*
X116237142Y-132925428D02*
X116165714Y-132854000D01*
X116022857Y-132782571D01*
X115665714Y-132782571D01*
X115522857Y-132854000D01*
X115451428Y-132925428D01*
X115380000Y-133068285D01*
X115380000Y-133211142D01*
X115451428Y-133425428D01*
X116308571Y-134282571D01*
X115380000Y-134282571D01*
X113951428Y-134282571D02*
X114808571Y-134282571D01*
X114380000Y-134282571D02*
X114380000Y-132782571D01*
X114522857Y-132996857D01*
X114665714Y-133139714D01*
X114808571Y-133211142D01*
X144596571Y-114772285D02*
X144596571Y-115486571D01*
X145096571Y-113986571D02*
X144596571Y-114772285D01*
X144096571Y-113986571D01*
X142953714Y-115486571D02*
X142953714Y-114700857D01*
X143025142Y-114558000D01*
X143168000Y-114486571D01*
X143453714Y-114486571D01*
X143596571Y-114558000D01*
X142953714Y-115415142D02*
X143096571Y-115486571D01*
X143453714Y-115486571D01*
X143596571Y-115415142D01*
X143668000Y-115272285D01*
X143668000Y-115129428D01*
X143596571Y-114986571D01*
X143453714Y-114915142D01*
X143096571Y-114915142D01*
X142953714Y-114843714D01*
X142239428Y-115486571D02*
X142239428Y-114486571D01*
X142239428Y-114629428D02*
X142168000Y-114558000D01*
X142025142Y-114486571D01*
X141810857Y-114486571D01*
X141668000Y-114558000D01*
X141596571Y-114700857D01*
X141596571Y-115486571D01*
X141596571Y-114700857D02*
X141525142Y-114558000D01*
X141382285Y-114486571D01*
X141168000Y-114486571D01*
X141025142Y-114558000D01*
X140953714Y-114700857D01*
X140953714Y-115486571D01*
X140239428Y-115486571D02*
X140239428Y-113986571D01*
X139668000Y-113986571D01*
X139525142Y-114058000D01*
X139453714Y-114129428D01*
X139382285Y-114272285D01*
X139382285Y-114486571D01*
X139453714Y-114629428D01*
X139525142Y-114700857D01*
X139668000Y-114772285D01*
X140239428Y-114772285D01*
X138525142Y-115486571D02*
X138668000Y-115415142D01*
X138739428Y-115272285D01*
X138739428Y-113986571D01*
X137310857Y-115486571D02*
X137310857Y-114700857D01*
X137382285Y-114558000D01*
X137525142Y-114486571D01*
X137810857Y-114486571D01*
X137953714Y-114558000D01*
X137310857Y-115415142D02*
X137453714Y-115486571D01*
X137810857Y-115486571D01*
X137953714Y-115415142D01*
X138025142Y-115272285D01*
X138025142Y-115129428D01*
X137953714Y-114986571D01*
X137810857Y-114915142D01*
X137453714Y-114915142D01*
X137310857Y-114843714D01*
X136810857Y-114486571D02*
X136239428Y-114486571D01*
X136596571Y-113986571D02*
X136596571Y-115272285D01*
X136525142Y-115415142D01*
X136382285Y-115486571D01*
X136239428Y-115486571D01*
X135168000Y-115415142D02*
X135310857Y-115486571D01*
X135596571Y-115486571D01*
X135739428Y-115415142D01*
X135810857Y-115272285D01*
X135810857Y-114700857D01*
X135739428Y-114558000D01*
X135596571Y-114486571D01*
X135310857Y-114486571D01*
X135168000Y-114558000D01*
X135096571Y-114700857D01*
X135096571Y-114843714D01*
X135810857Y-114986571D01*
X133025142Y-113986571D02*
X132882285Y-113986571D01*
X132739428Y-114058000D01*
X132668000Y-114129428D01*
X132596571Y-114272285D01*
X132525142Y-114558000D01*
X132525142Y-114915142D01*
X132596571Y-115200857D01*
X132668000Y-115343714D01*
X132739428Y-115415142D01*
X132882285Y-115486571D01*
X133025142Y-115486571D01*
X133168000Y-115415142D01*
X133239428Y-115343714D01*
X133310857Y-115200857D01*
X133382285Y-114915142D01*
X133382285Y-114558000D01*
X133310857Y-114272285D01*
X133239428Y-114129428D01*
X133168000Y-114058000D01*
X133025142Y-113986571D01*
X131882285Y-115343714D02*
X131810857Y-115415142D01*
X131882285Y-115486571D01*
X131953714Y-115415142D01*
X131882285Y-115343714D01*
X131882285Y-115486571D01*
X130382285Y-115486571D02*
X131239428Y-115486571D01*
X130810857Y-115486571D02*
X130810857Y-113986571D01*
X130953714Y-114200857D01*
X131096571Y-114343714D01*
X131239428Y-114415142D01*
X145882285Y-133854000D02*
X145168000Y-133854000D01*
X146025142Y-134282571D02*
X145525142Y-132782571D01*
X145025142Y-134282571D01*
X144525142Y-133282571D02*
X144525142Y-134282571D01*
X144525142Y-133425428D02*
X144453714Y-133354000D01*
X144310857Y-133282571D01*
X144096571Y-133282571D01*
X143953714Y-133354000D01*
X143882285Y-133496857D01*
X143882285Y-134282571D01*
X142525142Y-134282571D02*
X142525142Y-132782571D01*
X142525142Y-134211142D02*
X142668000Y-134282571D01*
X142953714Y-134282571D01*
X143096571Y-134211142D01*
X143168000Y-134139714D01*
X143239428Y-133996857D01*
X143239428Y-133568285D01*
X143168000Y-133425428D01*
X143096571Y-133354000D01*
X142953714Y-133282571D01*
X142668000Y-133282571D01*
X142525142Y-133354000D01*
X141810857Y-134282571D02*
X141810857Y-133282571D01*
X141810857Y-133568285D02*
X141739428Y-133425428D01*
X141668000Y-133354000D01*
X141525142Y-133282571D01*
X141382285Y-133282571D01*
X140310857Y-134211142D02*
X140453714Y-134282571D01*
X140739428Y-134282571D01*
X140882285Y-134211142D01*
X140953714Y-134068285D01*
X140953714Y-133496857D01*
X140882285Y-133354000D01*
X140739428Y-133282571D01*
X140453714Y-133282571D01*
X140310857Y-133354000D01*
X140239428Y-133496857D01*
X140239428Y-133639714D01*
X140953714Y-133782571D01*
X139739428Y-133282571D02*
X139453714Y-134282571D01*
X139168000Y-133568285D01*
X138882285Y-134282571D01*
X138596571Y-133282571D01*
X136382285Y-133496857D02*
X136882285Y-133496857D01*
X136882285Y-134282571D02*
X136882285Y-132782571D01*
X136168000Y-132782571D01*
X135596571Y-134282571D02*
X135596571Y-133282571D01*
X135596571Y-132782571D02*
X135668000Y-132854000D01*
X135596571Y-132925428D01*
X135525142Y-132854000D01*
X135596571Y-132782571D01*
X135596571Y-132925428D01*
X134953714Y-134211142D02*
X134810857Y-134282571D01*
X134525142Y-134282571D01*
X134382285Y-134211142D01*
X134310857Y-134068285D01*
X134310857Y-133996857D01*
X134382285Y-133854000D01*
X134525142Y-133782571D01*
X134739428Y-133782571D01*
X134882285Y-133711142D01*
X134953714Y-133568285D01*
X134953714Y-133496857D01*
X134882285Y-133354000D01*
X134739428Y-133282571D01*
X134525142Y-133282571D01*
X134382285Y-133354000D01*
X133025142Y-134211142D02*
X133168000Y-134282571D01*
X133453714Y-134282571D01*
X133596571Y-134211142D01*
X133668000Y-134139714D01*
X133739428Y-133996857D01*
X133739428Y-133568285D01*
X133668000Y-133425428D01*
X133596571Y-133354000D01*
X133453714Y-133282571D01*
X133168000Y-133282571D01*
X133025142Y-133354000D01*
X132382285Y-134282571D02*
X132382285Y-132782571D01*
X131739428Y-134282571D02*
X131739428Y-133496857D01*
X131810857Y-133354000D01*
X131953714Y-133282571D01*
X132168000Y-133282571D01*
X132310857Y-133354000D01*
X132382285Y-133425428D01*
X130453714Y-134211142D02*
X130596571Y-134282571D01*
X130882285Y-134282571D01*
X131025142Y-134211142D01*
X131096571Y-134068285D01*
X131096571Y-133496857D01*
X131025142Y-133354000D01*
X130882285Y-133282571D01*
X130596571Y-133282571D01*
X130453714Y-133354000D01*
X130382285Y-133496857D01*
X130382285Y-133639714D01*
X131096571Y-133782571D01*
X129739428Y-134282571D02*
X129739428Y-133282571D01*
X129739428Y-133568285D02*
X129668000Y-133425428D01*
X129596571Y-133354000D01*
X129453714Y-133282571D01*
X129310857Y-133282571D01*
D12*
X101480904Y-100607120D02*
X101480904Y-99607120D01*
X101242809Y-99607120D01*
X101099952Y-99654740D01*
X101004714Y-99749978D01*
X100957095Y-99845216D01*
X100909476Y-100035692D01*
X100909476Y-100178549D01*
X100957095Y-100369025D01*
X101004714Y-100464263D01*
X101099952Y-100559501D01*
X101242809Y-100607120D01*
X101480904Y-100607120D01*
D13*
X112742789Y-94907360D02*
X113314218Y-94907360D01*
X113028503Y-94907360D02*
X113028503Y-93907360D01*
X113123741Y-94050218D01*
X113218980Y-94145456D01*
X113314218Y-94193075D01*
X112123741Y-93907360D02*
X112028503Y-93907360D01*
X111933265Y-93954980D01*
X111885646Y-94002599D01*
X111838027Y-94097837D01*
X111790408Y-94288313D01*
X111790408Y-94526408D01*
X111838027Y-94716884D01*
X111885646Y-94812122D01*
X111933265Y-94859741D01*
X112028503Y-94907360D01*
X112123741Y-94907360D01*
X112218980Y-94859741D01*
X112266599Y-94812122D01*
X112314218Y-94716884D01*
X112361837Y-94526408D01*
X112361837Y-94288313D01*
X112314218Y-94097837D01*
X112266599Y-94002599D01*
X112218980Y-93954980D01*
X112123741Y-93907360D01*
X111361837Y-94907360D02*
X111361837Y-94240694D01*
X111361837Y-94335932D02*
X111314218Y-94288313D01*
X111218980Y-94240694D01*
X111076122Y-94240694D01*
X110980884Y-94288313D01*
X110933265Y-94383551D01*
X110933265Y-94907360D01*
X110933265Y-94383551D02*
X110885646Y-94288313D01*
X110790408Y-94240694D01*
X110647551Y-94240694D01*
X110552313Y-94288313D01*
X110504694Y-94383551D01*
X110504694Y-94907360D01*
X110028503Y-94907360D02*
X110028503Y-94240694D01*
X110028503Y-94335932D02*
X109980884Y-94288313D01*
X109885646Y-94240694D01*
X109742789Y-94240694D01*
X109647551Y-94288313D01*
X109599932Y-94383551D01*
X109599932Y-94907360D01*
X109599932Y-94383551D02*
X109552313Y-94288313D01*
X109457075Y-94240694D01*
X109314218Y-94240694D01*
X109218980Y-94288313D01*
X109171360Y-94383551D01*
X109171360Y-94907360D01*
X101266619Y-93808300D02*
X101171380Y-93808300D01*
X101076142Y-93855920D01*
X101028523Y-93903539D01*
X100980904Y-93998777D01*
X100933285Y-94189253D01*
X100933285Y-94427348D01*
X100980904Y-94617824D01*
X101028523Y-94713062D01*
X101076142Y-94760681D01*
X101171380Y-94808300D01*
X101266619Y-94808300D01*
X101361857Y-94760681D01*
X101409476Y-94713062D01*
X101457095Y-94617824D01*
X101504714Y-94427348D01*
X101504714Y-94189253D01*
X101457095Y-93998777D01*
X101409476Y-93903539D01*
X101361857Y-93855920D01*
X101266619Y-93808300D01*
X105979624Y-93706700D02*
X106455815Y-93706700D01*
X106503434Y-94182891D01*
X106455815Y-94135272D01*
X106360577Y-94087653D01*
X106122481Y-94087653D01*
X106027243Y-94135272D01*
X105979624Y-94182891D01*
X105932005Y-94278129D01*
X105932005Y-94516224D01*
X105979624Y-94611462D01*
X106027243Y-94659081D01*
X106122481Y-94706700D01*
X106360577Y-94706700D01*
X106455815Y-94659081D01*
X106503434Y-94611462D01*
X122079924Y-93801939D02*
X122032305Y-93754320D01*
X121937067Y-93706700D01*
X121698972Y-93706700D01*
X121603734Y-93754320D01*
X121556115Y-93801939D01*
X121508496Y-93897177D01*
X121508496Y-93992415D01*
X121556115Y-94135272D01*
X122127543Y-94706700D01*
X121508496Y-94706700D01*
X120889448Y-93706700D02*
X120794210Y-93706700D01*
X120698972Y-93754320D01*
X120651353Y-93801939D01*
X120603734Y-93897177D01*
X120556115Y-94087653D01*
X120556115Y-94325748D01*
X120603734Y-94516224D01*
X120651353Y-94611462D01*
X120698972Y-94659081D01*
X120794210Y-94706700D01*
X120889448Y-94706700D01*
X120984686Y-94659081D01*
X121032305Y-94611462D01*
X121079924Y-94516224D01*
X121127543Y-94325748D01*
X121127543Y-94087653D01*
X121079924Y-93897177D01*
X121032305Y-93801939D01*
X120984686Y-93754320D01*
X120889448Y-93706700D01*
X132028463Y-93607640D02*
X131409416Y-93607640D01*
X131742749Y-93988593D01*
X131599892Y-93988593D01*
X131504654Y-94036212D01*
X131457035Y-94083831D01*
X131409416Y-94179069D01*
X131409416Y-94417164D01*
X131457035Y-94512402D01*
X131504654Y-94560021D01*
X131599892Y-94607640D01*
X131885606Y-94607640D01*
X131980844Y-94560021D01*
X132028463Y-94512402D01*
X130790368Y-93607640D02*
X130695130Y-93607640D01*
X130599892Y-93655260D01*
X130552273Y-93702879D01*
X130504654Y-93798117D01*
X130457035Y-93988593D01*
X130457035Y-94226688D01*
X130504654Y-94417164D01*
X130552273Y-94512402D01*
X130599892Y-94560021D01*
X130695130Y-94607640D01*
X130790368Y-94607640D01*
X130885606Y-94560021D01*
X130933225Y-94512402D01*
X130980844Y-94417164D01*
X131028463Y-94226688D01*
X131028463Y-93988593D01*
X130980844Y-93798117D01*
X130933225Y-93702879D01*
X130885606Y-93655260D01*
X130790368Y-93607640D01*
X141504634Y-93839374D02*
X141504634Y-94506040D01*
X141742729Y-93458421D02*
X141980824Y-94172707D01*
X141361777Y-94172707D01*
X140790348Y-93506040D02*
X140695110Y-93506040D01*
X140599872Y-93553660D01*
X140552253Y-93601279D01*
X140504634Y-93696517D01*
X140457015Y-93886993D01*
X140457015Y-94125088D01*
X140504634Y-94315564D01*
X140552253Y-94410802D01*
X140599872Y-94458421D01*
X140695110Y-94506040D01*
X140790348Y-94506040D01*
X140885586Y-94458421D01*
X140933205Y-94410802D01*
X140980824Y-94315564D01*
X141028443Y-94125088D01*
X141028443Y-93886993D01*
X140980824Y-93696517D01*
X140933205Y-93601279D01*
X140885586Y-93553660D01*
X140790348Y-93506040D01*
X152790328Y-93506040D02*
X153266519Y-93506040D01*
X153314138Y-93982231D01*
X153266519Y-93934612D01*
X153171280Y-93886993D01*
X152933185Y-93886993D01*
X152837947Y-93934612D01*
X152790328Y-93982231D01*
X152742709Y-94077469D01*
X152742709Y-94315564D01*
X152790328Y-94410802D01*
X152837947Y-94458421D01*
X152933185Y-94506040D01*
X153171280Y-94506040D01*
X153266519Y-94458421D01*
X153314138Y-94410802D01*
X152123661Y-93506040D02*
X152028423Y-93506040D01*
X151933185Y-93553660D01*
X151885566Y-93601279D01*
X151837947Y-93696517D01*
X151790328Y-93886993D01*
X151790328Y-94125088D01*
X151837947Y-94315564D01*
X151885566Y-94410802D01*
X151933185Y-94458421D01*
X152028423Y-94506040D01*
X152123661Y-94506040D01*
X152218900Y-94458421D01*
X152266519Y-94410802D01*
X152314138Y-94315564D01*
X152361757Y-94125088D01*
X152361757Y-93886993D01*
X152314138Y-93696517D01*
X152266519Y-93601279D01*
X152218900Y-93553660D01*
X152123661Y-93506040D01*
X151361757Y-94506040D02*
X151361757Y-93839374D01*
X151361757Y-93934612D02*
X151314138Y-93886993D01*
X151218900Y-93839374D01*
X151076042Y-93839374D01*
X150980804Y-93886993D01*
X150933185Y-93982231D01*
X150933185Y-94506040D01*
X150933185Y-93982231D02*
X150885566Y-93886993D01*
X150790328Y-93839374D01*
X150647471Y-93839374D01*
X150552233Y-93886993D01*
X150504614Y-93982231D01*
X150504614Y-94506040D01*
X150028423Y-94506040D02*
X150028423Y-93839374D01*
X150028423Y-93934612D02*
X149980804Y-93886993D01*
X149885566Y-93839374D01*
X149742709Y-93839374D01*
X149647471Y-93886993D01*
X149599852Y-93982231D01*
X149599852Y-94506040D01*
X149599852Y-93982231D02*
X149552233Y-93886993D01*
X149456995Y-93839374D01*
X149314138Y-93839374D01*
X149218900Y-93886993D01*
X149171280Y-93982231D01*
X149171280Y-94506040D01*
%LPC*%
M02*
