G04 #@! TF.GenerationSoftware,KiCad,Pcbnew,(5.1.9)-1*
G04 #@! TF.CreationDate,2021-05-26T14:26:09+01:00*
G04 #@! TF.ProjectId,YamPlate,59616d50-6c61-4746-952e-6b696361645f,rev?*
G04 #@! TF.SameCoordinates,Original*
G04 #@! TF.FileFunction,Legend,Top*
G04 #@! TF.FilePolarity,Positive*
%FSLAX46Y46*%
G04 Gerber Fmt 4.6, Leading zero omitted, Abs format (unit mm)*
G04 Created by KiCad (PCBNEW (5.1.9)-1) date 2021-05-26 14:26:09*
%MOMM*%
%LPD*%
G01*
G04 APERTURE LIST*
%ADD10C,0.381000*%
G04 APERTURE END LIST*
D10*
X131010780Y-95959990D02*
X131010780Y-97000180D01*
X130282647Y-94815780D02*
X131010780Y-95959990D01*
X131738914Y-94815780D01*
X133403219Y-97000180D02*
X133403219Y-95855971D01*
X133299200Y-95647933D01*
X133091161Y-95543914D01*
X132675085Y-95543914D01*
X132467047Y-95647933D01*
X133403219Y-96896161D02*
X133195180Y-97000180D01*
X132675085Y-97000180D01*
X132467047Y-96896161D01*
X132363028Y-96688123D01*
X132363028Y-96480085D01*
X132467047Y-96272047D01*
X132675085Y-96168028D01*
X133195180Y-96168028D01*
X133403219Y-96064009D01*
X134443409Y-97000180D02*
X134443409Y-95543914D01*
X134443409Y-95751952D02*
X134547428Y-95647933D01*
X134755466Y-95543914D01*
X135067523Y-95543914D01*
X135275561Y-95647933D01*
X135379580Y-95855971D01*
X135379580Y-97000180D01*
X135379580Y-95855971D02*
X135483600Y-95647933D01*
X135691638Y-95543914D01*
X136003695Y-95543914D01*
X136211733Y-95647933D01*
X136315752Y-95855971D01*
X136315752Y-97000180D01*
X137355942Y-97000180D02*
X137355942Y-94815780D01*
X138188095Y-94815780D01*
X138396133Y-94919800D01*
X138500152Y-95023819D01*
X138604171Y-95231857D01*
X138604171Y-95543914D01*
X138500152Y-95751952D01*
X138396133Y-95855971D01*
X138188095Y-95959990D01*
X137355942Y-95959990D01*
X139852400Y-97000180D02*
X139644361Y-96896161D01*
X139540342Y-96688123D01*
X139540342Y-94815780D01*
X141620723Y-97000180D02*
X141620723Y-95855971D01*
X141516704Y-95647933D01*
X141308666Y-95543914D01*
X140892590Y-95543914D01*
X140684552Y-95647933D01*
X141620723Y-96896161D02*
X141412685Y-97000180D01*
X140892590Y-97000180D01*
X140684552Y-96896161D01*
X140580533Y-96688123D01*
X140580533Y-96480085D01*
X140684552Y-96272047D01*
X140892590Y-96168028D01*
X141412685Y-96168028D01*
X141620723Y-96064009D01*
X142348857Y-95543914D02*
X143181009Y-95543914D01*
X142660914Y-94815780D02*
X142660914Y-96688123D01*
X142764933Y-96896161D01*
X142972971Y-97000180D01*
X143181009Y-97000180D01*
X144741295Y-96896161D02*
X144533257Y-97000180D01*
X144117180Y-97000180D01*
X143909142Y-96896161D01*
X143805123Y-96688123D01*
X143805123Y-95855971D01*
X143909142Y-95647933D01*
X144117180Y-95543914D01*
X144533257Y-95543914D01*
X144741295Y-95647933D01*
X144845314Y-95855971D01*
X144845314Y-96064009D01*
X143805123Y-96272047D01*
%LPC*%
M02*
