G04 #@! TF.GenerationSoftware,KiCad,Pcbnew,(5.1.9)-1*
G04 #@! TF.CreationDate,2021-05-26T14:26:09+01:00*
G04 #@! TF.ProjectId,YamPlate,59616d50-6c61-4746-952e-6b696361645f,rev?*
G04 #@! TF.SameCoordinates,Original*
G04 #@! TF.FileFunction,Profile,NP*
%FSLAX46Y46*%
G04 Gerber Fmt 4.6, Leading zero omitted, Abs format (unit mm)*
G04 Created by KiCad (PCBNEW (5.1.9)-1) date 2021-05-26 14:26:09*
%MOMM*%
%LPD*%
G01*
G04 APERTURE LIST*
G04 #@! TA.AperFunction,Profile*
%ADD10C,0.150000*%
G04 #@! TD*
G04 APERTURE END LIST*
D10*
X121158000Y-150215600D02*
X135178800Y-150215600D01*
X135178800Y-150215600D02*
X135178800Y-149250400D01*
X135178800Y-149250400D02*
X135991600Y-149250400D01*
X116230400Y-140309600D02*
X116789200Y-140309600D01*
X116941600Y-146202400D02*
X116789200Y-146100800D01*
X116890800Y-140208000D02*
X116890800Y-137210800D01*
X101295200Y-140208000D02*
X101346000Y-140360400D01*
X116128800Y-145999200D02*
X116128800Y-140411200D01*
X116890800Y-137210800D02*
X116128800Y-137210800D01*
X102057200Y-140512800D02*
X102108000Y-140563600D01*
X101295200Y-146253200D02*
X101295200Y-149199600D01*
X116128800Y-150215600D02*
X116128800Y-149199600D01*
X101346000Y-140360400D02*
X101955600Y-140360400D01*
X116128800Y-140411200D02*
X116230400Y-140309600D01*
X101955600Y-140360400D02*
X102057200Y-140512800D01*
X101295200Y-149199600D02*
X102108000Y-149199600D01*
X102006400Y-146100800D02*
X101447600Y-146100800D01*
X102108000Y-149199600D02*
X102108000Y-150215600D01*
X116789200Y-146100800D02*
X116179600Y-146100800D01*
X116789200Y-140309600D02*
X116890800Y-140208000D01*
X116128800Y-137210800D02*
X116128800Y-136194800D01*
X102108000Y-140563600D02*
X102108000Y-145999200D01*
X116179600Y-146100800D02*
X116128800Y-145999200D01*
X102108000Y-145999200D02*
X102006400Y-146100800D01*
X101447600Y-146100800D02*
X101295200Y-146253200D01*
X102108000Y-150215600D02*
X116128800Y-150215600D01*
X116128800Y-149199600D02*
X116941600Y-149199600D01*
X116941600Y-149199600D02*
X116941600Y-146202400D01*
X135178800Y-136194800D02*
X121158000Y-136194800D01*
X121158000Y-149199600D02*
X121158000Y-150215600D01*
X121107200Y-140309600D02*
X121158000Y-140411200D01*
X121158000Y-145999200D02*
X121056400Y-146100800D01*
X120497600Y-146100800D02*
X120345200Y-146253200D01*
X120345200Y-149199600D02*
X121158000Y-149199600D01*
X135178800Y-145897600D02*
X135178800Y-140411200D01*
X120345200Y-140208000D02*
X120446800Y-140309600D01*
X135991600Y-140208000D02*
X135991600Y-137210800D01*
X135280400Y-140309600D02*
X135890000Y-140309600D01*
X135331200Y-146050000D02*
X135178800Y-145897600D01*
X135178800Y-140411200D02*
X135280400Y-140309600D01*
X121158000Y-137210800D02*
X120345200Y-137210800D01*
X135991600Y-146202400D02*
X135890000Y-146050000D01*
X135890000Y-146050000D02*
X135331200Y-146050000D01*
X135890000Y-140309600D02*
X135991600Y-140208000D01*
X120446800Y-140309600D02*
X121107200Y-140309600D01*
X121158000Y-136194800D02*
X121158000Y-137210800D01*
X120345200Y-146253200D02*
X120345200Y-149199600D01*
X121158000Y-140411200D02*
X121158000Y-145999200D01*
X135991600Y-137210800D02*
X135178800Y-137210800D01*
X135991600Y-149250400D02*
X135991600Y-146202400D01*
X121056400Y-146100800D02*
X120497600Y-146100800D01*
X135178800Y-137210800D02*
X135178800Y-136194800D01*
X120345200Y-137210800D02*
X120345200Y-140208000D01*
X101295200Y-137210800D02*
X101295200Y-140208000D01*
X116128800Y-136194800D02*
X102108000Y-136194800D01*
X102108000Y-136194800D02*
X102108000Y-137210800D01*
X102108000Y-137210800D02*
X101295200Y-137210800D01*
X158470600Y-63754000D02*
X158978600Y-63754000D01*
X158318200Y-60655200D02*
X158318200Y-63601600D01*
X173964600Y-69697600D02*
X173812200Y-69545200D01*
X173151800Y-60655200D02*
X173151800Y-59690000D01*
X173812200Y-69545200D02*
X173304200Y-69545200D01*
X159131000Y-72644000D02*
X159131000Y-73660000D01*
X173151800Y-63906400D02*
X173253400Y-63754000D01*
X173151800Y-69443600D02*
X173151800Y-63906400D01*
X159131000Y-60655200D02*
X158318200Y-60655200D01*
X159131000Y-63855600D02*
X159131000Y-69443600D01*
X173151800Y-73660000D02*
X173151800Y-72694800D01*
X173913800Y-63652400D02*
X173913800Y-60655200D01*
X173964600Y-72694800D02*
X173964600Y-69697600D01*
X158369000Y-72644000D02*
X159131000Y-72644000D01*
X159131000Y-69443600D02*
X159029400Y-69545200D01*
X173304200Y-69545200D02*
X173151800Y-69443600D01*
X173812200Y-63754000D02*
X173913800Y-63652400D01*
X173913800Y-60655200D02*
X173151800Y-60655200D01*
X173151800Y-72694800D02*
X173964600Y-72694800D01*
X158470600Y-69545200D02*
X158369000Y-69646800D01*
X173151800Y-73660000D02*
X159131000Y-73660000D01*
X158978600Y-63754000D02*
X159131000Y-63855600D01*
X173253400Y-63754000D02*
X173812200Y-63754000D01*
X159029400Y-69545200D02*
X158470600Y-69545200D01*
X159131000Y-59690000D02*
X159131000Y-60655200D01*
X173151800Y-59690000D02*
X159131000Y-59690000D01*
X158369000Y-69646800D02*
X158369000Y-72644000D01*
X158318200Y-63601600D02*
X158470600Y-63754000D01*
X172212000Y-123444000D02*
X172593000Y-123444000D01*
X172212000Y-126593600D02*
X172212000Y-123444000D01*
X135270400Y-63729600D02*
X135168800Y-63831200D01*
X135168800Y-59614800D02*
X135168800Y-60630800D01*
X120487600Y-63729600D02*
X120335200Y-63577200D01*
X120335200Y-63577200D02*
X120335200Y-60630800D01*
X121148000Y-60630800D02*
X121148000Y-59614800D01*
X135168800Y-60630800D02*
X135981600Y-60630800D01*
X121148000Y-59614800D02*
X135168800Y-59614800D01*
X135981600Y-60630800D02*
X135981600Y-63577200D01*
X135981600Y-63577200D02*
X135829200Y-63729600D01*
X135981600Y-72619600D02*
X135168800Y-72619600D01*
X135168800Y-63831200D02*
X135168800Y-69419200D01*
X135829200Y-69520800D02*
X135981600Y-69673200D01*
X116118800Y-73635600D02*
X102098000Y-73635600D01*
X135168800Y-69419200D02*
X135270400Y-69520800D01*
X135168800Y-72619600D02*
X135168800Y-73635600D01*
X135981600Y-69673200D02*
X135981600Y-72619600D01*
X102098000Y-73635600D02*
X102098000Y-72619600D01*
X135829200Y-63729600D02*
X135270400Y-63729600D01*
X120335200Y-60630800D02*
X121148000Y-60630800D01*
X121148000Y-69419200D02*
X121148000Y-63831200D01*
X135270400Y-69520800D02*
X135829200Y-69520800D01*
X121148000Y-63831200D02*
X121046400Y-63729600D01*
X121046400Y-63729600D02*
X120487600Y-63729600D01*
X116779200Y-63729600D02*
X116220400Y-63729600D01*
X116118800Y-60580000D02*
X116931600Y-60580000D01*
X116931600Y-63628000D02*
X116779200Y-63729600D01*
X102098000Y-69419200D02*
X102098000Y-63882000D01*
X116118800Y-69419200D02*
X116220400Y-69520800D01*
X116118800Y-59614800D02*
X116118800Y-60580000D01*
X101996400Y-63729600D02*
X101437600Y-63729600D01*
X116779200Y-69520800D02*
X116880800Y-69622400D01*
X116220400Y-63729600D02*
X116118800Y-63831200D01*
X116931600Y-60580000D02*
X116931600Y-63628000D01*
X116220400Y-69520800D02*
X116779200Y-69520800D01*
X102098000Y-59614800D02*
X116118800Y-59614800D01*
X102098000Y-72619600D02*
X101285200Y-72619600D01*
X102098000Y-60630800D02*
X102098000Y-59614800D01*
X101285200Y-63628000D02*
X101285200Y-60630800D01*
X116118800Y-63831200D02*
X116118800Y-69419200D01*
X101285200Y-72619600D02*
X101285200Y-69673200D01*
X101285200Y-69673200D02*
X101386800Y-69520800D01*
X101386800Y-69520800D02*
X101996400Y-69520800D01*
X101996400Y-69520800D02*
X102098000Y-69419200D01*
X102098000Y-63882000D02*
X101996400Y-63729600D01*
X101437600Y-63729600D02*
X101285200Y-63628000D01*
X101285200Y-60630800D02*
X102098000Y-60630800D01*
X155031600Y-72670400D02*
X155031600Y-69673200D01*
X154980800Y-60630800D02*
X154218800Y-60630800D01*
X155031600Y-69673200D02*
X154879200Y-69520800D01*
X154320400Y-63729600D02*
X154879200Y-63729600D01*
X154218800Y-69419200D02*
X154218800Y-63882000D01*
X154879200Y-63729600D02*
X154980800Y-63628000D01*
X154879200Y-69520800D02*
X154371200Y-69520800D01*
X154980800Y-63628000D02*
X154980800Y-60630800D01*
X154218800Y-63882000D02*
X154320400Y-63729600D01*
X154218800Y-73635600D02*
X154218800Y-72670400D01*
X154218800Y-72670400D02*
X155031600Y-72670400D01*
X154371200Y-69520800D02*
X154218800Y-69419200D01*
X140096400Y-69520800D02*
X139537600Y-69520800D01*
X140198000Y-69419200D02*
X140096400Y-69520800D01*
X139436000Y-72619600D02*
X140198000Y-72619600D01*
X140198000Y-72619600D02*
X140198000Y-73635600D01*
X121148000Y-73635600D02*
X121148000Y-72670400D01*
X120335200Y-72670400D02*
X120335200Y-69673200D01*
X120335200Y-69673200D02*
X120487600Y-69520800D01*
X121046400Y-69520800D02*
X121148000Y-69419200D01*
X154218800Y-60630800D02*
X154218800Y-59665600D01*
X121148000Y-72670400D02*
X120335200Y-72670400D01*
X154218800Y-59665600D02*
X140198000Y-59665600D01*
X140198000Y-59665600D02*
X140198000Y-60630800D01*
X140198000Y-63831200D02*
X140198000Y-69419200D01*
X120487600Y-69520800D02*
X121046400Y-69520800D01*
X140198000Y-60630800D02*
X139385200Y-60630800D01*
X139385200Y-60630800D02*
X139385200Y-63577200D01*
X139385200Y-63577200D02*
X139537600Y-63729600D01*
X135168800Y-73635600D02*
X121148000Y-73635600D01*
X140045600Y-63729600D02*
X140198000Y-63831200D01*
X139436000Y-69622400D02*
X139436000Y-72619600D01*
X154218800Y-73635600D02*
X140198000Y-73635600D01*
X139537600Y-69520800D02*
X139436000Y-69622400D01*
X139537600Y-63729600D02*
X140045600Y-63729600D01*
X116931600Y-72619600D02*
X116169600Y-72619600D01*
X116169600Y-72619600D02*
X116169600Y-73635600D01*
X116169600Y-73635600D02*
X116118800Y-73635600D01*
X116880800Y-69622400D02*
X116931600Y-69673200D01*
X116931600Y-69673200D02*
X116931600Y-72619600D01*
X155041600Y-121361200D02*
X155041600Y-121158000D01*
X154228800Y-121361200D02*
X155041600Y-121361200D01*
X172339000Y-118364000D02*
X171551600Y-118364000D01*
X172593000Y-118618000D02*
X172339000Y-118364000D01*
X172593000Y-120015000D02*
X172593000Y-118618000D01*
X172593000Y-123444000D02*
X172593000Y-120015000D01*
X173228000Y-126619000D02*
X172212000Y-126619000D01*
X173228000Y-144068800D02*
X173228000Y-126619000D01*
X159156400Y-123494800D02*
X158496000Y-123494800D01*
X159156400Y-126695200D02*
X159156400Y-123494800D01*
X171958000Y-80264000D02*
X171627800Y-80264000D01*
X172618400Y-105918000D02*
X173355000Y-105918000D01*
X172618400Y-105918000D02*
X172618400Y-109067600D01*
X173355000Y-102870000D02*
X173355000Y-105918000D01*
X171958000Y-81915000D02*
X171958000Y-80264000D01*
X172720000Y-81915000D02*
X171958000Y-81915000D01*
X173355000Y-81915000D02*
X173355000Y-102870000D01*
X172720000Y-81915000D02*
X173355000Y-81915000D01*
X158546800Y-80264000D02*
X165506400Y-80264000D01*
X158546800Y-80264000D02*
X158546800Y-80365600D01*
X158546800Y-81940400D02*
X158546800Y-80365600D01*
X158521400Y-81991200D02*
X158546800Y-81940400D01*
X171704000Y-110947200D02*
X171704000Y-110794800D01*
X168478200Y-110947200D02*
X171704000Y-110947200D01*
X165684200Y-111023400D02*
X165582600Y-110871000D01*
X159156400Y-105562400D02*
X158394400Y-105867200D01*
X100076000Y-152908000D02*
X100038800Y-152905575D01*
X159131000Y-87249000D02*
X159385000Y-86995000D01*
X159131000Y-88620600D02*
X159131000Y-87249000D01*
X159156400Y-102489000D02*
X159156400Y-105562400D01*
X172669200Y-144068800D02*
X172669200Y-144119600D01*
X173228000Y-144068800D02*
X172669200Y-144068800D01*
X158648400Y-143865600D02*
X158546800Y-143916400D01*
X159156400Y-143865600D02*
X158648400Y-143865600D01*
X159156400Y-140563600D02*
X159156400Y-143865600D01*
X100038800Y-152905575D02*
G75*
G02*
X99060000Y-151790400I87999J1064376D01*
G01*
X116179600Y-93065600D02*
X116128800Y-93065600D01*
X116179600Y-92049600D02*
X116179600Y-93065600D01*
X116941600Y-92049600D02*
X116179600Y-92049600D01*
X116941600Y-89103200D02*
X116941600Y-92049600D01*
X116890800Y-89052400D02*
X116941600Y-89103200D01*
X116789200Y-88950800D02*
X116890800Y-89052400D01*
X116230400Y-88950800D02*
X116789200Y-88950800D01*
X116128800Y-88849200D02*
X116230400Y-88950800D01*
X116128800Y-83261200D02*
X116128800Y-88849200D01*
X116230400Y-83159600D02*
X116128800Y-83261200D01*
X116789200Y-83159600D02*
X116230400Y-83159600D01*
X116941600Y-83058000D02*
X116789200Y-83159600D01*
X116941600Y-80010000D02*
X116941600Y-83058000D01*
X116128800Y-80010000D02*
X116941600Y-80010000D01*
X116128800Y-79044800D02*
X116128800Y-80010000D01*
X102108000Y-79044800D02*
X116128800Y-79044800D01*
X102108000Y-80060800D02*
X102108000Y-79044800D01*
X101295200Y-80060800D02*
X102108000Y-80060800D01*
X101295200Y-83058000D02*
X101295200Y-80060800D01*
X101447600Y-83159600D02*
X101295200Y-83058000D01*
X102006400Y-83159600D02*
X101447600Y-83159600D01*
X102108000Y-83312000D02*
X102006400Y-83159600D01*
X102108000Y-88849200D02*
X102108000Y-83312000D01*
X102006400Y-88950800D02*
X102108000Y-88849200D01*
X101396800Y-88950800D02*
X102006400Y-88950800D01*
X101295200Y-89103200D02*
X101396800Y-88950800D01*
X101295200Y-92049600D02*
X101295200Y-89103200D01*
X102108000Y-92049600D02*
X101295200Y-92049600D01*
X102108000Y-93065600D02*
X102108000Y-92049600D01*
X116128800Y-93065600D02*
X102108000Y-93065600D01*
X135178800Y-92049600D02*
X135178800Y-93065600D01*
X135991600Y-92049600D02*
X135178800Y-92049600D01*
X135991600Y-89103200D02*
X135991600Y-92049600D01*
X135839200Y-88950800D02*
X135991600Y-89103200D01*
X135280400Y-88950800D02*
X135839200Y-88950800D01*
X135178800Y-88849200D02*
X135280400Y-88950800D01*
X135178800Y-83261200D02*
X135178800Y-88849200D01*
X135280400Y-83159600D02*
X135178800Y-83261200D01*
X135839200Y-83159600D02*
X135280400Y-83159600D01*
X135991600Y-83007200D02*
X135839200Y-83159600D01*
X135991600Y-80060800D02*
X135991600Y-83007200D01*
X135178800Y-80060800D02*
X135991600Y-80060800D01*
X135178800Y-79044800D02*
X135178800Y-80060800D01*
X121158000Y-79044800D02*
X135178800Y-79044800D01*
X121158000Y-80060800D02*
X121158000Y-79044800D01*
X120345200Y-80060800D02*
X121158000Y-80060800D01*
X120345200Y-83007200D02*
X120345200Y-80060800D01*
X120497600Y-83159600D02*
X120345200Y-83007200D01*
X121056400Y-83159600D02*
X120497600Y-83159600D01*
X121158000Y-83261200D02*
X121056400Y-83159600D01*
X121158000Y-88849200D02*
X121158000Y-83261200D01*
X121056400Y-88950800D02*
X121158000Y-88849200D01*
X120497600Y-88950800D02*
X121056400Y-88950800D01*
X120345200Y-89103200D02*
X120497600Y-88950800D01*
X120345200Y-92100400D02*
X120345200Y-89103200D01*
X121158000Y-92100400D02*
X120345200Y-92100400D01*
X121158000Y-93065600D02*
X121158000Y-92100400D01*
X135178800Y-93065600D02*
X121158000Y-93065600D01*
X154228800Y-93065600D02*
X140208000Y-93065600D01*
X140208000Y-92049600D02*
X140208000Y-93065600D01*
X139446000Y-92049600D02*
X140208000Y-92049600D01*
X139446000Y-89052400D02*
X139446000Y-92049600D01*
X139547600Y-88950800D02*
X139446000Y-89052400D01*
X140106400Y-88950800D02*
X139547600Y-88950800D01*
X140208000Y-88849200D02*
X140106400Y-88950800D01*
X140208000Y-83261200D02*
X140208000Y-88849200D01*
X140055600Y-83159600D02*
X140208000Y-83261200D01*
X139547600Y-83159600D02*
X140055600Y-83159600D01*
X139395200Y-83007200D02*
X139547600Y-83159600D01*
X139395200Y-80060800D02*
X139395200Y-83007200D01*
X140208000Y-80060800D02*
X139395200Y-80060800D01*
X140208000Y-79095600D02*
X140208000Y-80060800D01*
X154228800Y-79095600D02*
X140208000Y-79095600D01*
X154228800Y-80060800D02*
X154228800Y-79095600D01*
X154990800Y-80060800D02*
X154228800Y-80060800D01*
X154990800Y-83058000D02*
X154990800Y-80060800D01*
X154889200Y-83159600D02*
X154990800Y-83058000D01*
X154330400Y-83159600D02*
X154889200Y-83159600D01*
X154228800Y-83312000D02*
X154330400Y-83159600D01*
X154228800Y-88849200D02*
X154228800Y-83312000D01*
X154381200Y-88950800D02*
X154228800Y-88849200D01*
X154889200Y-88950800D02*
X154381200Y-88950800D01*
X155041600Y-89103200D02*
X154889200Y-88950800D01*
X155041600Y-92100400D02*
X155041600Y-89103200D01*
X154228800Y-92100400D02*
X155041600Y-92100400D01*
X154228800Y-93065600D02*
X154228800Y-92100400D01*
X140208000Y-99110800D02*
X139395200Y-99110800D01*
X140208000Y-98094800D02*
X140208000Y-99110800D01*
X154228800Y-98094800D02*
X140208000Y-98094800D01*
X154228800Y-99110800D02*
X154228800Y-98094800D01*
X155041600Y-99110800D02*
X154228800Y-99110800D01*
X155041600Y-102108000D02*
X155041600Y-99110800D01*
X154940000Y-102209600D02*
X155041600Y-102108000D01*
X154330400Y-102209600D02*
X154940000Y-102209600D01*
X154228800Y-102311200D02*
X154330400Y-102209600D01*
X154228800Y-107797600D02*
X154228800Y-102311200D01*
X154330400Y-107950000D02*
X154228800Y-107797600D01*
X154889200Y-107950000D02*
X154330400Y-107950000D01*
X155041600Y-108102400D02*
X154889200Y-107950000D01*
X155041600Y-111150400D02*
X155041600Y-108102400D01*
X154228800Y-111150400D02*
X155041600Y-111150400D01*
X154228800Y-112115600D02*
X154228800Y-111150400D01*
X140208000Y-112115600D02*
X154228800Y-112115600D01*
X140208000Y-111099600D02*
X140208000Y-112115600D01*
X139395200Y-111099600D02*
X140208000Y-111099600D01*
X139395200Y-108102400D02*
X139395200Y-111099600D01*
X139547600Y-107950000D02*
X139395200Y-108102400D01*
X140004800Y-107950000D02*
X139547600Y-107950000D01*
X140157200Y-107848400D02*
X140004800Y-107950000D01*
X140157200Y-102362000D02*
X140157200Y-107848400D01*
X140055600Y-102260400D02*
X140157200Y-102362000D01*
X139547600Y-102260400D02*
X140055600Y-102260400D01*
X139395200Y-102108000D02*
X139547600Y-102260400D01*
X139395200Y-99110800D02*
X139395200Y-102108000D01*
X121158000Y-99110800D02*
X120345200Y-99110800D01*
X121158000Y-98094800D02*
X121158000Y-99110800D01*
X135178800Y-98094800D02*
X121158000Y-98094800D01*
X135178800Y-99110800D02*
X135178800Y-98094800D01*
X135991600Y-99110800D02*
X135178800Y-99110800D01*
X135991600Y-102057200D02*
X135991600Y-99110800D01*
X135839200Y-102209600D02*
X135991600Y-102057200D01*
X135280400Y-102209600D02*
X135839200Y-102209600D01*
X135178800Y-102311200D02*
X135280400Y-102209600D01*
X135178800Y-107899200D02*
X135178800Y-102311200D01*
X135280400Y-108000800D02*
X135178800Y-107899200D01*
X135839200Y-108000800D02*
X135280400Y-108000800D01*
X135991600Y-108153200D02*
X135839200Y-108000800D01*
X135991600Y-111099600D02*
X135991600Y-108153200D01*
X135178800Y-111099600D02*
X135991600Y-111099600D01*
X135178800Y-111150400D02*
X135178800Y-111099600D01*
X135178800Y-112115600D02*
X135178800Y-111150400D01*
X121158000Y-112115600D02*
X135178800Y-112115600D01*
X121158000Y-111099600D02*
X121158000Y-112115600D01*
X120396000Y-111099600D02*
X121158000Y-111099600D01*
X120396000Y-108153200D02*
X120396000Y-111099600D01*
X120497600Y-108051600D02*
X120396000Y-108153200D01*
X121056400Y-108051600D02*
X120497600Y-108051600D01*
X121158000Y-107950000D02*
X121056400Y-108051600D01*
X121158000Y-102362000D02*
X121158000Y-107950000D01*
X121005600Y-102209600D02*
X121158000Y-102362000D01*
X120446800Y-102209600D02*
X121005600Y-102209600D01*
X120345200Y-102108000D02*
X120446800Y-102209600D01*
X120345200Y-102006400D02*
X120345200Y-102108000D01*
X120345200Y-99110800D02*
X120345200Y-102006400D01*
X101447600Y-108000800D02*
X101320600Y-108127800D01*
X102006400Y-108000800D02*
X101447600Y-108000800D01*
X102108000Y-107899200D02*
X102006400Y-108000800D01*
X102108000Y-102311200D02*
X102108000Y-107899200D01*
X102006400Y-102209600D02*
X102108000Y-102311200D01*
X101447600Y-102209600D02*
X102006400Y-102209600D01*
X101295200Y-102057200D02*
X101447600Y-102209600D01*
X101295200Y-99060000D02*
X101295200Y-102057200D01*
X102108000Y-99060000D02*
X101295200Y-99060000D01*
X102108000Y-98094800D02*
X102108000Y-99060000D01*
X116128800Y-98094800D02*
X102108000Y-98094800D01*
X116128800Y-99110800D02*
X116128800Y-98094800D01*
X116941600Y-99110800D02*
X116128800Y-99110800D01*
X116941600Y-102108000D02*
X116941600Y-99110800D01*
X116840000Y-102209600D02*
X116941600Y-102108000D01*
X116281200Y-102209600D02*
X116840000Y-102209600D01*
X116128800Y-102362000D02*
X116281200Y-102209600D01*
X116128800Y-107848400D02*
X116128800Y-102362000D01*
X116281200Y-108000800D02*
X116128800Y-107848400D01*
X116789200Y-108000800D02*
X116281200Y-108000800D01*
X116941600Y-108153200D02*
X116789200Y-108000800D01*
X116941600Y-111150400D02*
X116941600Y-108153200D01*
X116128800Y-111150400D02*
X116941600Y-111150400D01*
X116128800Y-112115600D02*
X116128800Y-111150400D01*
X102108000Y-112115600D02*
X116128800Y-112115600D01*
X102108000Y-111099600D02*
X102108000Y-112115600D01*
X101320600Y-111099600D02*
X102108000Y-111099600D01*
X101320600Y-108127800D02*
X101320600Y-111099600D01*
X140208000Y-118160800D02*
X140208000Y-117144800D01*
X139395200Y-118160800D02*
X140208000Y-118160800D01*
X139395200Y-121158000D02*
X139395200Y-118160800D01*
X139496800Y-121259600D02*
X139395200Y-121158000D01*
X140106400Y-121259600D02*
X139496800Y-121259600D01*
X140208000Y-121361200D02*
X140106400Y-121259600D01*
X140208000Y-126949200D02*
X140208000Y-121361200D01*
X140106400Y-127050800D02*
X140208000Y-126949200D01*
X139496800Y-127050800D02*
X140106400Y-127050800D01*
X139395200Y-127203200D02*
X139496800Y-127050800D01*
X139395200Y-130200400D02*
X139395200Y-127203200D01*
X139446000Y-130200400D02*
X139395200Y-130200400D01*
X140208000Y-130200400D02*
X139446000Y-130200400D01*
X140208000Y-131165600D02*
X140208000Y-130200400D01*
X154228800Y-131165600D02*
X140208000Y-131165600D01*
X154228800Y-130149600D02*
X154228800Y-131165600D01*
X155041600Y-130149600D02*
X154228800Y-130149600D01*
X155041600Y-127101600D02*
X155041600Y-130149600D01*
X154940000Y-127000000D02*
X155041600Y-127101600D01*
X154330400Y-127000000D02*
X154940000Y-127000000D01*
X154228800Y-126898400D02*
X154330400Y-127000000D01*
X154228800Y-121361200D02*
X154228800Y-126898400D01*
X155041600Y-118160800D02*
X155041600Y-121158000D01*
X154228800Y-118160800D02*
X155041600Y-118160800D01*
X154228800Y-117144800D02*
X154228800Y-118160800D01*
X140208000Y-117144800D02*
X154228800Y-117144800D01*
X121158000Y-130149600D02*
X121158000Y-131165600D01*
X120345200Y-130149600D02*
X121158000Y-130149600D01*
X120345200Y-127203200D02*
X120345200Y-130149600D01*
X120497600Y-127050800D02*
X120345200Y-127203200D01*
X121056400Y-127050800D02*
X120497600Y-127050800D01*
X121158000Y-126949200D02*
X121056400Y-127050800D01*
X121158000Y-121361200D02*
X121158000Y-126949200D01*
X121107200Y-121259600D02*
X121158000Y-121361200D01*
X120446800Y-121259600D02*
X121107200Y-121259600D01*
X120345200Y-121158000D02*
X120446800Y-121259600D01*
X120345200Y-118160800D02*
X120345200Y-121158000D01*
X121158000Y-118160800D02*
X120345200Y-118160800D01*
X121158000Y-117144800D02*
X121158000Y-118160800D01*
X135178800Y-117144800D02*
X121158000Y-117144800D01*
X135178800Y-118160800D02*
X135178800Y-117144800D01*
X135991600Y-118160800D02*
X135178800Y-118160800D01*
X135991600Y-121158000D02*
X135991600Y-118160800D01*
X135890000Y-121259600D02*
X135991600Y-121158000D01*
X135280400Y-121259600D02*
X135890000Y-121259600D01*
X135178800Y-121361200D02*
X135280400Y-121259600D01*
X135178800Y-126847600D02*
X135178800Y-121361200D01*
X135331200Y-127000000D02*
X135178800Y-126847600D01*
X135890000Y-127000000D02*
X135331200Y-127000000D01*
X135991600Y-127152400D02*
X135890000Y-127000000D01*
X135991600Y-130200400D02*
X135991600Y-127152400D01*
X135178800Y-130200400D02*
X135991600Y-130200400D01*
X135178800Y-131165600D02*
X135178800Y-130200400D01*
X121158000Y-131165600D02*
X135178800Y-131165600D01*
X116128800Y-118160800D02*
X116128800Y-117144800D01*
X116890800Y-118160800D02*
X116128800Y-118160800D01*
X116890800Y-121158000D02*
X116890800Y-118160800D01*
X116789200Y-121259600D02*
X116890800Y-121158000D01*
X116230400Y-121259600D02*
X116789200Y-121259600D01*
X116128800Y-121361200D02*
X116230400Y-121259600D01*
X116128800Y-126949200D02*
X116128800Y-121361200D01*
X116179600Y-127050800D02*
X116128800Y-126949200D01*
X116789200Y-127050800D02*
X116179600Y-127050800D01*
X116941600Y-127152400D02*
X116789200Y-127050800D01*
X116941600Y-130149600D02*
X116941600Y-127152400D01*
X116128800Y-130149600D02*
X116941600Y-130149600D01*
X116128800Y-131165600D02*
X116128800Y-130149600D01*
X102108000Y-131165600D02*
X116128800Y-131165600D01*
X102108000Y-130149600D02*
X102108000Y-131165600D01*
X101295200Y-130149600D02*
X102108000Y-130149600D01*
X101295200Y-127203200D02*
X101295200Y-130149600D01*
X101447600Y-127050800D02*
X101295200Y-127203200D01*
X102006400Y-127050800D02*
X101447600Y-127050800D01*
X102108000Y-126949200D02*
X102006400Y-127050800D01*
X102108000Y-121513600D02*
X102108000Y-126949200D01*
X102057200Y-121462800D02*
X102108000Y-121513600D01*
X101955600Y-121310400D02*
X102057200Y-121462800D01*
X101346000Y-121310400D02*
X101955600Y-121310400D01*
X101295200Y-121158000D02*
X101346000Y-121310400D01*
X101295200Y-118160800D02*
X101295200Y-121158000D01*
X102108000Y-118160800D02*
X101295200Y-118160800D01*
X102108000Y-117144800D02*
X102108000Y-118160800D01*
X116128800Y-117144800D02*
X102108000Y-117144800D01*
X154228800Y-149199600D02*
X154228800Y-150215600D01*
X154228800Y-149148800D02*
X154228800Y-149199600D01*
X154990800Y-149148800D02*
X154228800Y-149148800D01*
X154990800Y-146202400D02*
X154990800Y-149148800D01*
X154838400Y-146100800D02*
X154990800Y-146202400D01*
X154279600Y-146100800D02*
X154838400Y-146100800D01*
X154228800Y-145999200D02*
X154279600Y-146100800D01*
X154228800Y-140411200D02*
X154228800Y-145999200D01*
X154279600Y-140360400D02*
X154228800Y-140411200D01*
X154940000Y-140360400D02*
X154279600Y-140360400D01*
X155041600Y-140258800D02*
X154940000Y-140360400D01*
X155041600Y-137160000D02*
X155041600Y-140258800D01*
X154228800Y-137160000D02*
X155041600Y-137160000D01*
X154228800Y-136194800D02*
X154228800Y-137160000D01*
X140157200Y-136194800D02*
X154228800Y-136194800D01*
X140157200Y-137160000D02*
X140157200Y-136194800D01*
X139395200Y-137160000D02*
X140157200Y-137160000D01*
X139395200Y-140208000D02*
X139395200Y-137160000D01*
X139547600Y-140360400D02*
X139395200Y-140208000D01*
X140106400Y-140360400D02*
X139547600Y-140360400D01*
X140208000Y-140462000D02*
X140106400Y-140360400D01*
X140208000Y-145948400D02*
X140208000Y-140462000D01*
X140106400Y-146050000D02*
X140208000Y-145948400D01*
X139496800Y-146050000D02*
X140106400Y-146050000D01*
X139395200Y-146151600D02*
X139496800Y-146050000D01*
X139395200Y-149250400D02*
X139395200Y-146151600D01*
X140208000Y-149250400D02*
X139395200Y-149250400D01*
X140208000Y-150215600D02*
X140208000Y-149250400D01*
X154228800Y-150215600D02*
X140208000Y-150215600D01*
X159359600Y-118414800D02*
X159562800Y-118364000D01*
X159359600Y-119989600D02*
X159359600Y-118414800D01*
X159258000Y-120091200D02*
X159359600Y-119989600D01*
X158496000Y-120091200D02*
X159258000Y-120091200D01*
X158394400Y-120192800D02*
X158496000Y-120091200D01*
X158394400Y-123393200D02*
X158394400Y-120192800D01*
X158496000Y-123494800D02*
X158394400Y-123393200D01*
X159156400Y-140563600D02*
X159156400Y-126695200D01*
X158394400Y-144018000D02*
X158546800Y-143916400D01*
X158394400Y-147167600D02*
X158394400Y-144018000D01*
X158546800Y-147269200D02*
X158394400Y-147167600D01*
X159258000Y-147269200D02*
X158546800Y-147269200D01*
X159359600Y-147421600D02*
X159258000Y-147269200D01*
X159359600Y-148793200D02*
X159359600Y-147421600D01*
X159461200Y-148996400D02*
X159359600Y-148793200D01*
X165557200Y-148996400D02*
X159461200Y-148996400D01*
X165658800Y-149148800D02*
X165557200Y-148996400D01*
X165658800Y-149809200D02*
X165658800Y-149148800D01*
X168452800Y-149809200D02*
X165658800Y-149809200D01*
X168554400Y-149758400D02*
X168452800Y-149809200D01*
X168554400Y-149047200D02*
X168554400Y-149758400D01*
X168605200Y-148996400D02*
X168554400Y-149047200D01*
X171653200Y-148996400D02*
X168605200Y-148996400D01*
X171754800Y-148945600D02*
X171653200Y-148996400D01*
X171754800Y-148844000D02*
X171754800Y-148945600D01*
X171754800Y-147320000D02*
X171754800Y-148844000D01*
X171805600Y-147269200D02*
X171754800Y-147320000D01*
X172618400Y-147269200D02*
X171805600Y-147269200D01*
X172669200Y-147218400D02*
X172618400Y-147269200D01*
X172669200Y-144119600D02*
X172669200Y-147218400D01*
X168554400Y-118364000D02*
X171551600Y-118364000D01*
X168503600Y-118262400D02*
X168554400Y-118364000D01*
X168503600Y-117652800D02*
X168503600Y-118262400D01*
X168402000Y-117551200D02*
X168503600Y-117652800D01*
X165760400Y-117551200D02*
X168402000Y-117551200D01*
X165658800Y-117703600D02*
X165760400Y-117551200D01*
X165658800Y-118211600D02*
X165658800Y-117703600D01*
X165506400Y-118364000D02*
X165658800Y-118211600D01*
X159562800Y-118364000D02*
X165506400Y-118364000D01*
X168554400Y-80264000D02*
X171627800Y-80264000D01*
X168503600Y-80187800D02*
X168554400Y-80264000D01*
X168503600Y-79578200D02*
X168503600Y-80187800D01*
X168452800Y-79527400D02*
X168503600Y-79578200D01*
X168376600Y-79451200D02*
X168452800Y-79527400D01*
X165735000Y-79451200D02*
X168376600Y-79451200D01*
X165633400Y-79552800D02*
X165735000Y-79451200D01*
X165633400Y-80137000D02*
X165633400Y-79552800D01*
X165506400Y-80264000D02*
X165633400Y-80137000D01*
X158419800Y-82092800D02*
X158521400Y-81991200D01*
X158419800Y-85369400D02*
X158419800Y-82092800D01*
X159232600Y-85369400D02*
X158419800Y-85369400D01*
X159385000Y-85445600D02*
X159232600Y-85369400D01*
X159385000Y-86995000D02*
X159385000Y-85445600D01*
X159156400Y-102489000D02*
X159131000Y-88620600D01*
X158394400Y-109067600D02*
X158394400Y-105867200D01*
X158419800Y-109093000D02*
X158394400Y-109067600D01*
X158546800Y-109143800D02*
X158419800Y-109093000D01*
X159334200Y-109143800D02*
X158546800Y-109143800D01*
X159410400Y-109321600D02*
X159334200Y-109143800D01*
X159410400Y-110718600D02*
X159410400Y-109321600D01*
X159410400Y-110871000D02*
X159410400Y-110718600D01*
X159461200Y-110871000D02*
X159410400Y-110871000D01*
X165582600Y-110871000D02*
X159461200Y-110871000D01*
X165684200Y-111633000D02*
X165684200Y-111023400D01*
X165785800Y-111683800D02*
X165684200Y-111633000D01*
X168376600Y-111683800D02*
X165785800Y-111683800D01*
X168478200Y-111556800D02*
X168376600Y-111683800D01*
X168478200Y-110947200D02*
X168478200Y-111556800D01*
X171704000Y-110718600D02*
X171704000Y-110794800D01*
X171704000Y-109194600D02*
X171704000Y-110718600D01*
X171881800Y-109143800D02*
X171704000Y-109194600D01*
X172516800Y-109143800D02*
X171881800Y-109143800D01*
X172618400Y-109093000D02*
X172516800Y-109143800D01*
X172618400Y-109067600D02*
X172618400Y-109093000D01*
X175641000Y-57908000D02*
G75*
G02*
X176149000Y-58416000I0J-508000D01*
G01*
X176149000Y-152400000D02*
G75*
G02*
X175641000Y-152908000I-508000J0D01*
G01*
X99060000Y-58408000D02*
G75*
G02*
X99568000Y-57900000I508000J0D01*
G01*
X100076000Y-152908000D02*
X175641000Y-152908000D01*
X176149100Y-152400000D02*
X176149100Y-58416000D01*
X175641000Y-57908000D02*
X99568000Y-57908000D01*
X99060000Y-58416000D02*
X99060000Y-151790400D01*
M02*
